HIERARCHY
ROOT hip
{
  OFFSET 0 0 0
  CHANNELS 6 Xposition Yposition Zposition Zrotation Yrotation Xrotation
  JOINT abdomen
  {
    OFFSET 0 20.6881 -0.73152
    CHANNELS 3 Zrotation Xrotation Yrotation
    JOINT chest
    {
      OFFSET 0 11.7043 -0.48768
      CHANNELS 3 Zrotation Xrotation Yrotation
      JOINT neck
      {
        OFFSET 0 22.1894 -2.19456
        CHANNELS 3 Zrotation Xrotation Yrotation
        JOINT head
        {
          OFFSET -0.24384 7.07133 1.2192
          CHANNELS 3 Zrotation Xrotation Yrotation
          JOINT leftEye
          {
            OFFSET 4.14528 8.04674 8.04672
            CHANNELS 3 Zrotation Xrotation Yrotation
            End Site
            {
              OFFSET 1 0 0
            }
          }
          JOINT rightEye
          {
            OFFSET -3.6576 8.04674 8.04672
            CHANNELS 3 Zrotation Xrotation Yrotation
            End Site
            {
              OFFSET 1 0 0
            }
          }
        }
      }
      JOINT rCollar
      {
        OFFSET -2.68224 19.2634 -4.8768
        CHANNELS 3 Zrotation Xrotation Yrotation
        JOINT rShldr
        {
          OFFSET -8.77824 -1.95073 1.46304
          CHANNELS 3 Zrotation Xrotation Yrotation
          JOINT rForeArm
          {
            OFFSET -28.1742 -1.7115 0.48768
            CHANNELS 3 Zrotation Xrotation Yrotation
            JOINT rHand
            {
              OFFSET -22.5879 0.773209 7.07136
              CHANNELS 3 Zrotation Xrotation Yrotation
              JOINT rThumb1
              {
                OFFSET -1.2192 -0.487915 3.41376
                CHANNELS 3 Zrotation Xrotation Yrotation
                JOINT rThumb2
                {
                  OFFSET -3.37035 -0.52449 3.41376
                  CHANNELS 3 Zrotation Xrotation Yrotation
                  End Site
                  {
                    OFFSET -1.78271 -1.18214 1.43049
                  }
                }
              }
              JOINT rIndex1
              {
                OFFSET -7.75947 0.938293 5.60832
                CHANNELS 3 Zrotation Xrotation Yrotation
                JOINT rIndex2
                {
                  OFFSET -2.54057 -0.884171 1.56538
                  CHANNELS 3 Zrotation Xrotation Yrotation
                  End Site
                  {
                    OFFSET -1.62519 -0.234802 1.16502
                  }
                }
              }
              JOINT rMid1
              {
                OFFSET -8.24714 1.18213 3.41376
                CHANNELS 3 Zrotation Xrotation Yrotation
                JOINT rMid2
                {
                  OFFSET -3.10165 -0.590103 1.0647
                  CHANNELS 3 Zrotation Xrotation Yrotation
                  End Site
                  {
                    OFFSET -2.48547 -0.328903 0.83742
                  }
                }
              }
              JOINT rRing1
              {
                OFFSET -8.82822 0.546677 1.51678
                CHANNELS 3 Zrotation Xrotation Yrotation
                JOINT rRing2
                {
                  OFFSET -2.60934 -0.819778 -0.0198488
                  CHANNELS 3 Zrotation Xrotation Yrotation
                  End Site
                  {
                    OFFSET -2.33842 -0.294052 0.168128
                  }
                }
              }
              JOINT rPinky1
              {
                OFFSET -8.27202 -0.0477905 -0.4584
                CHANNELS 3 Zrotation Xrotation Yrotation
                JOINT rPinky2
                {
                  OFFSET -1.82734 -0.647385 -0.700984
                  CHANNELS 3 Zrotation Xrotation Yrotation
                  End Site
                  {
                    OFFSET -1.69225 -0.51767 -0.607171
                  }
                }
              }
            }
          }
        }
      }
      JOINT lCollar
      {
        OFFSET 2.68224 19.2634 -4.8768
        CHANNELS 3 Zrotation Xrotation Yrotation
        JOINT lShldr
        {
          OFFSET 8.77824 -1.95073 1.46304
          CHANNELS 3 Zrotation Xrotation Yrotation
          JOINT lForeArm
          {
            OFFSET 28.1742 -1.7115 0.48768
            CHANNELS 3 Zrotation Xrotation Yrotation
            JOINT lHand
            {
              OFFSET 22.5879 0.773209 7.07136
              CHANNELS 3 Zrotation Xrotation Yrotation
              JOINT lThumb1
              {
                OFFSET 1.2192 -0.487915 3.41376
                CHANNELS 3 Zrotation Xrotation Yrotation
                JOINT lThumb2
                {
                  OFFSET 3.37035 -0.52449 3.41376
                  CHANNELS 3 Zrotation Xrotation Yrotation
                  End Site
                  {
                    OFFSET 1.78271 -1.18214 1.43049
                  }
                }
              }
              JOINT lIndex1
              {
                OFFSET 7.75947 0.938293 5.60832
                CHANNELS 3 Zrotation Xrotation Yrotation
                JOINT lIndex2
                {
                  OFFSET 2.54057 -0.884171 1.56538
                  CHANNELS 3 Zrotation Xrotation Yrotation
                  End Site
                  {
                    OFFSET 1.62519 -0.234802 1.16502
                  }
                }
              }
              JOINT lMid1
              {
                OFFSET 8.24714 1.18213 3.41376
                CHANNELS 3 Zrotation Xrotation Yrotation
                JOINT lMid2
                {
                  OFFSET 3.10165 -0.590103 1.0647
                  CHANNELS 3 Zrotation Xrotation Yrotation
                  End Site
                  {
                    OFFSET 2.48547 -0.328903 0.83742
                  }
                }
              }
              JOINT lRing1
              {
                OFFSET 8.82822 0.546677 1.51678
                CHANNELS 3 Zrotation Xrotation Yrotation
                JOINT lRing2
                {
                  OFFSET 2.60934 -0.819778 -0.0198488
                  CHANNELS 3 Zrotation Xrotation Yrotation
                  End Site
                  {
                    OFFSET 2.33842 -0.294052 0.168128
                  }
                }
              }
              JOINT lPinky1
              {
                OFFSET 8.27202 -0.0477905 -0.4584
                CHANNELS 3 Zrotation Xrotation Yrotation
                JOINT lPinky2
                {
                  OFFSET 1.82734 -0.647385 -0.700984
                  CHANNELS 3 Zrotation Xrotation Yrotation
                  End Site
                  {
                    OFFSET 1.69225 -0.51767 -0.607171
                  }
                }
              }
            }
          }
        }
      }
    }
  }
  JOINT rButtock
  {
    OFFSET -8.77824 4.35084 1.2192
    CHANNELS 3 Zrotation Xrotation Yrotation
    JOINT rThigh
    {
      OFFSET 0 -1.70687 -2.19456
      CHANNELS 3 Zrotation Xrotation Yrotation
      JOINT rShin
      {
        OFFSET 0 -36.8199 0.73152
        CHANNELS 3 Zrotation Xrotation Yrotation
        JOINT rFoot
        {
          OFFSET 0.73152 -45.1104 -5.12064
          CHANNELS 3 Zrotation Xrotation Yrotation
          End Site
          {
            OFFSET -1.1221 -3.69964 12.103
          }
        }
      }
    }
  }
  JOINT lButtock
  {
    OFFSET 8.77824 4.35084 1.2192
    CHANNELS 3 Zrotation Xrotation Yrotation
    JOINT lThigh
    {
      OFFSET 0 -1.70687 -2.19456
      CHANNELS 3 Zrotation Xrotation Yrotation
      JOINT lShin
      {
        OFFSET 0 -36.8199 0.73152
        CHANNELS 3 Zrotation Xrotation Yrotation
        JOINT lFoot
        {
          OFFSET -0.73152 -45.1104 -5.12064
          CHANNELS 3 Zrotation Xrotation Yrotation
          End Site
          {
            OFFSET 1.1221 -3.69964 12.103
          }
        }
      }
    }
  }
}
MOTION
Frames:	4
Frame Time:	0.00833333
124.807 84.3737 -123.912 0.0 0.0 0.0 -1.03704 -0.00414437 -0.0285998 -0.285912 -0.00382795 -0.0495311 6.16016e-15 7.95139e-16 6.21202e-17 1.88752e-14 9.54166e-15 1.92573e-16 -0.0 0.0 0.0 -0.0 0.0 0.0 3.32845e-15 3.49426e-18 2.48481e-16 6.67703e-14 7.20594e-16 1.39149e-15 1.12229e-12 -3.29386e-13 3.18055e-15 1.28644e-11 3.74386e-13 1.39944e-13 3.03337e-11 8.83469e-14 3.435e-13 5.23722e-11 1.52667e-13 5.98739e-13 3.03377e-11 8.78628e-14 3.40319e-13 7.73091 5.47488 0.417314 3.03327e-11 8.77634e-14 3.49861e-13 2.90554 0.965183 0.102902 3.0337e-11 8.82604e-14 3.4668e-13 10.2786 0.731801 0.0259123 3.03248e-11 9.26337e-14 3.59403e-13 2.22167 -0.733487 -0.20892 3.03286e-15 5.62964e-18 -1.49089e-16 6.56525e-14 3.10601e-16 1.98785e-16 1.12696e-12 3.41114e-13 -3.18055e-15 1.28583e-11 -3.11346e-13 1.78111e-13 3.03394e-11 6.05637e-14 3.56222e-13 5.24084e-11 1.04958e-13 5.98739e-13 3.03349e-11 6.16232e-14 3.59403e-13 -7.73091 5.47488 -0.417314 3.03406e-11 6.02318e-14 3.49861e-13 -2.90554 0.965183 -0.102902 3.03388e-11 6.02318e-14 3.47476e-13 -10.2786 0.731801 -0.0259123 3.03463e-11 6.16232e-14 3.30778e-13 -2.22167 -0.733487 0.20892 -2.03217e-16 0.0 -3.88251e-19 -0.272851 -1.9197 -0.0125402 -0.00938496 -2.07854 -0.07758 -0.513251 3.99654 0.140458 2.03217e-16 0.0 3.88251e-19 -1.30495 -5.55695 0.114027 -0.000204401 4.50984 -0.0271188 0.527384 1.04554 -0.0815545
127.038 82.9338 -125.568 -4.3473 41.8162 -3.2447 -2.56411 3.69824 -0.170965 0.58256 -2.03239 -0.0965815 -0.259485 -0.587452 -1.31309 1.36606 5.81349 -2.53623 -0.0 0.0 0.0 -0.0 0.0 0.0 2.51702e-14 -3.97502e-14 -1.58379e-13 21.9586 14.0892 0.966215 -8.8682 -5.74316 11.4939 0.013623 -2.58978 -0.362627 3.36069e-11 -4.58828e-10 2.00099e-10 5.72378e-11 -7.9552e-10 3.47164e-10 3.36101e-11 -4.58828e-10 2.00095e-10 7.73091 5.47488 0.417314 3.36062e-11 -4.58825e-10 2.001e-10 2.90554 0.965183 0.102902 3.36108e-11 -4.58828e-10 2.00101e-10 10.2786 0.731801 0.0259123 3.35996e-11 -4.58824e-10 2.0011e-10 2.22167 -0.733487 -0.20892 2.49986e-14 -3.97444e-14 -1.58691e-13 -20.4597 11.1896 3.06486 11.5473 -8.46174 -13.2084 -0.0548685 -5.20083 0.720103 1.98454e-10 3.11694e-13 3.67241e-10 3.38166e-10 -5.51513e-12 6.36291e-10 1.98449e-10 3.09812e-13 3.67249e-10 -7.73091 5.47488 -0.417314 1.98455e-10 3.11882e-13 3.67238e-10 -2.90554 0.965183 -0.102902 1.9845e-10 3.11555e-13 3.67235e-10 -10.2786 0.731801 -0.0259123 1.98459e-10 3.11923e-13 3.67221e-10 -2.22167 -0.733487 0.20892 -2.03217e-16 0.0 -3.88251e-19 0.631853 -8.4311 0.0843144 0.0119075 9.80882 0.0985739 -0.386402 -2.87195 0.733054 2.03217e-16 0.0 3.88251e-19 0.759892 -6.85892 2.38396 -0.0893853 16.8346 -0.288509 0.568892 -11.1627 0.52545
127.038 82.9799 -123.86 -4.348 40.8016 -3.2962 -4.17905 7.61072 -0.3344 1.49694 -4.1736 -0.150962 -0.55956 -1.2062 -2.70534 3.38605 11.9427 -5.31416 -0.0 0.0 0.0 -0.0 0.0 0.0 4.58768e-14 -8.00136e-14 -3.27299e-13 44.587 28.9648 2.20828 -15.772 -11.0429 23.9986 -0.0077496 -5.32281 -0.747832 6.38186e-11 -9.78812e-10 4.20958e-10 1.08529e-10 -1.69732e-09 7.30557e-10 6.38209e-11 -9.7881e-10 4.20952e-10 7.73091 5.47488 0.417314 6.38183e-11 -9.78805e-10 4.20953e-10 2.90554 0.965183 0.102902 6.38233e-11 -9.78811e-10 4.20958e-10 10.2786 0.731801 0.0259123 6.38131e-11 -9.78807e-10 4.20964e-10 2.22167 -0.733487 -0.20892 4.58374e-14 -8.00036e-14 -3.2752e-13 -43.4814 22.9313 6.68607 19.5445 -15.9075 -28.0434 0.0314965 -10.6846 1.49974 4.01725e-10 1.89649e-11 7.61118e-10 6.84303e-10 2.00109e-11 1.31906e-09 4.0172e-10 1.89598e-11 7.6113e-10 -7.73091 5.47488 -0.417314 4.01727e-10 1.89656e-11 7.61117e-10 -2.90554 0.965183 -0.102902 4.01719e-10 1.89649e-11 7.61114e-10 -10.2786 0.731801 -0.0259123 4.01729e-10 1.89641e-11 7.61103e-10 -2.22167 -0.733487 0.20892 -2.03217e-16 0.0 -3.88251e-19 1.58836 -15.3467 0.161226 -0.049976 22.4233 0.306113 -0.096483 -10.1585 1.3776 2.03217e-16 0.0 3.88251e-19 3.01718 -8.17311 4.79603 -0.0434677 29.7665 -0.620789 0.875593 -24.1948 1.16159
127.008 83.035 -122.162 -4.3951 39.816 -3.3166 -5.56212 11.1027 -0.463298 2.30945 -6.08947 -0.191581 -0.859194 -1.75865 -3.94092 5.69919 17.3005 -7.93048 -0.0 0.0 0.0 -0.0 0.0 0.0 6.88536e-14 -1.19257e-13 -4.75633e-13 64.0284 42.2106 3.79701 -19.9772 -14.4473 35.5928 -0.0582447 -7.76807 -1.09684 4.01531e-11 -1.37666e-09 5.9961e-10 6.6969e-11 -2.38687e-09 1.0403e-09 4.01548e-11 -1.37666e-09 5.99604e-10 7.73091 5.47488 0.417314 4.01532e-11 -1.37665e-09 5.996e-10 2.90554 0.965183 0.102902 4.01584e-11 -1.37666e-09 5.99609e-10 10.2786 0.731801 0.0259123 4.01491e-11 -1.37666e-09 5.99612e-10 2.22167 -0.733487 -0.20892 6.893e-14 -1.19244e-13 -4.75775e-13 -65.5431 33.146 10.7918 23.4018 -19.9114 -42.2227 0.240231 -15.5924 2.23366 5.34682e-10 8.13958e-13 1.10101e-09 9.09682e-10 -1.67553e-11 1.90767e-09 5.34677e-10 8.06185e-13 1.10103e-09 -7.73091 5.47488 -0.417314 5.34684e-10 8.15185e-13 1.10101e-09 -2.90554 0.965183 -0.102902 5.34673e-10 8.14199e-13 1.10101e-09 -10.2786 0.731801 -0.0259123 5.34685e-10 8.12524e-13 1.101e-09 -2.22167 -0.733487 0.20892 -2.03217e-16 0.0 -3.88251e-19 2.51151 -21.4537 0.295769 -0.197191 33.5824 0.535906 0.308985 -16.6001 1.99954 2.03217e-16 0.0 3.88251e-19 5.20202 -9.41174 6.96794 0.17053 41.4801 -1.03363 1.57241 -35.5623 2.10175
